<svg width="70" height="70" viewBox="0 0 70 70" fill="none" xmlns="http://www.w3.org/2000/svg">
    <path d="M69.2582 32.9455H65.8637C65.0121 17.0195 52.2347 4.2505 36.3127 3.3945V0H32.9455V3.3945C17.0195 4.24606 4.2505 17.0235 3.3945 32.9455H0V36.3127H3.3945C4.24606 52.2387 17.0235 65.0077 32.9455 65.8637V69.2582H36.3127V65.8637C52.2387 65.0121 65.0077 52.2347 65.8637 36.3127H69.2582V32.9455ZM36.3132 62.4965V59.2738H32.946V62.4965C18.88 61.6527 7.61 50.3795 6.766 36.3165H9.9887V32.9493H6.766C7.60975 18.8833 18.883 7.6133 32.946 6.7693V9.992H36.3132V6.7693C50.3792 7.61305 61.6492 18.8863 62.4932 32.9493H59.2705V36.3165H62.4932C61.6494 50.3825 50.3762 61.6525 36.3132 62.4965Z" fill="black"/>
    <circle cx="35" cy="35" r="6" fill="#C00B0B"/>
</svg>
