<svg width="20" height="20" viewBox="0 0 20 20" fill="none" xmlns="http://www.w3.org/2000/svg">
    <circle cx="10" cy="10" r="9.5" stroke="#286248"/>
    <path d="M5.55846 5.80762H14.4422C14.741 5.80762 15.013 5.93574 15.2098 6.14199C15.4067 6.34824 15.529 6.63314 15.529 6.94615V13.055C15.529 13.3685 15.4067 13.6529 15.2098 13.8591C15.013 14.0653 14.741 14.1935 14.4422 14.1935L5.55846 14.193C5.25966 14.193 4.98772 14.0648 4.79085 13.8586C4.59398 13.6523 4.47168 13.368 4.47168 13.0544V6.94616C4.47168 6.63314 4.59398 6.34824 4.79085 6.142C4.98773 5.93575 5.25968 5.80762 5.55846 5.80762ZM14.9055 13.6216L11.6571 9.67682L10.8338 10.469V10.4685C10.8313 10.4711 10.8288 10.4732 10.8259 10.4758C10.5554 10.7096 10.28 10.8268 10.0001 10.8268V10.8263C9.72266 10.8263 9.45022 10.7122 9.18324 10.4836C9.17777 10.4789 9.1718 10.4742 9.16634 10.469L8.34303 9.67682L5.09465 13.6216C5.21944 13.7341 5.38201 13.8023 5.558 13.8023H14.4418C14.6183 13.8023 14.7802 13.7341 14.9055 13.6216ZM4.88023 13.2862L8.06904 9.41274L7.03694 8.41951L5.00948 6.46951C4.90657 6.5992 4.84442 6.76535 4.84442 6.94607V13.0549C4.84442 13.1351 4.85686 13.2133 4.88023 13.2862ZM5.32221 6.24087L7.28844 8.133L9.41771 10.1819H9.41821C9.61707 10.3517 9.81096 10.4366 9.99989 10.4366V10.4356C10.1893 10.4356 10.3832 10.3507 10.5816 10.1814L12.7108 8.1325L14.6771 6.24036C14.603 6.21276 14.5239 6.19817 14.4414 6.19817H5.55816C5.47513 6.19817 5.39559 6.21328 5.322 6.24088L5.32221 6.24087ZM14.9905 6.46951L12.9635 8.41951L11.9314 9.41274L15.1202 13.2862C15.1431 13.2133 15.1555 13.1352 15.1555 13.0544V6.94616C15.1555 6.76543 15.0934 6.59919 14.9905 6.46951Z" fill="#286248"/>
</svg>
