<svg width="26" height="26" viewBox="0 0 26 26" fill="none" xmlns="http://www.w3.org/2000/svg">
    <path d="M12.75 1C13.7772 1 14.7744 1.34575 15.582 1.98047L22.1973 7.17578L22.46 7.39355C23.0575 7.91962 23.5453 8.56042 23.8945 9.27832C24.2935 10.0987 24.5013 10.9989 24.501 11.9111V18.4834C24.5009 19.9792 23.9437 21.4178 22.9443 22.5215L22.7383 22.7373C21.61 23.8656 20.0792 24.5 18.4834 24.5H16.334C15.8788 24.5 15.4421 24.319 15.1201 23.9971C14.7981 23.6751 14.6172 23.2385 14.6172 22.7832V17.7666C14.6172 17.2716 14.4204 16.7964 14.0703 16.4463C13.7202 16.0963 13.245 15.8994 12.75 15.8994C12.2552 15.8995 11.7807 16.0964 11.4307 16.4463C11.0806 16.7963 10.8838 17.2715 10.8838 17.7666V22.7832C10.8838 23.2384 10.7028 23.6751 10.3809 23.9971C10.0589 24.319 9.62222 24.5 9.16699 24.5H7.0166C5.42089 24.4999 3.891 23.8656 2.7627 22.7373C1.63436 21.609 1.00005 20.079 1 18.4834V11.9111C0.999782 10.9989 1.20745 10.0987 1.60645 9.27832C2.0054 8.45809 2.58513 7.7388 3.30273 7.17578L9.91797 1.97949V1.98047C10.7256 1.34564 11.7228 1.00007 12.75 1Z" stroke="#898989" stroke-width="2"/>
</svg>
