<svg width="22" height="22" viewBox="0 0 22 22" fill="none" xmlns="http://www.w3.org/2000/svg">
    <path d="M19.7049 5.9622L13.0899 0.766218C12.4584 0.269841 11.6785 0 10.8753 0C10.0721 0 9.29221 0.269841 8.66075 0.766218L2.04572 5.9622C1.4471 6.43171 0.963105 7.03122 0.630345 7.71536C0.297584 8.39951 0.124778 9.15038 0.125 9.91116V16.4832C0.125 17.8137 0.653556 19.0898 1.59439 20.0306C2.53523 20.9714 3.81127 21.5 5.14182 21.5H7.29188C7.48196 21.5 7.66425 21.4245 7.79865 21.2901C7.93306 21.1557 8.00857 20.9734 8.00857 20.7833V15.7665C8.00857 15.0062 8.3106 14.277 8.84822 13.7394C9.38584 13.2018 10.115 12.8997 10.8753 12.8997C11.6356 12.8997 12.3648 13.2018 12.9024 13.7394C13.44 14.277 13.7421 15.0062 13.7421 15.7665V20.7833C13.7421 20.9734 13.8176 21.1557 13.952 21.2901C14.0864 21.4245 14.2687 21.5 14.4588 21.5H16.6088C17.9394 21.5 19.2154 20.9714 20.1562 20.0306C21.0971 19.0898 21.6256 17.8137 21.6256 16.4832V9.91116C21.6259 9.15038 21.4531 8.39951 21.1203 7.71536C20.7875 7.03122 20.3035 6.43171 19.7049 5.9622Z" fill="#5A9130"/>
</svg>
