<svg width="20" height="21" viewBox="0 0 20 21" fill="none" xmlns="http://www.w3.org/2000/svg">
    <path d="M20 10.7848C20.0026 9.09034 19.5739 7.42303 18.7542 5.93964C17.9345 4.45625 16.7507 3.20552 15.3142 2.30504C13.8776 1.40456 12.2355 0.883908 10.5422 0.792041C8.84882 0.700174 7.15993 1.04011 5.63425 1.77988C4.10858 2.51965 2.79624 3.63496 1.82062 5.02095C0.845006 6.40694 0.23816 8.01808 0.0571391 9.70289C-0.123882 11.3877 0.126869 13.0908 0.785816 14.6522C1.44476 16.2135 2.49026 17.5817 3.82401 18.6283C3.84245 18.6442 3.862 18.6588 3.88252 18.672C5.62942 20.0362 7.78285 20.7773 9.99999 20.7773C12.2171 20.7773 14.3706 20.0362 16.1175 18.672C16.138 18.6588 16.1575 18.6442 16.176 18.6283C17.3666 17.6959 18.3295 16.5054 18.992 15.1466C19.6544 13.7878 19.9991 12.2963 20 10.7848ZM1.06829 10.7848C1.0654 9.3046 1.43102 7.84689 2.13223 6.54298C2.83344 5.23907 3.84822 4.12992 5.08517 3.31539C6.32212 2.50087 7.74241 2.00656 9.21812 1.87699C10.6938 1.74741 12.1786 1.98664 13.5388 2.57312C14.8989 3.1596 16.0918 4.07492 17.0098 5.23665C17.9278 6.39838 18.5423 7.77003 18.7978 9.22808C19.0533 10.6861 18.9419 12.1848 18.4735 13.5891C18.0051 14.9934 17.1946 16.2593 16.1148 17.2727C15.71 15.9785 14.8941 14.8514 13.7907 14.0621C12.6873 13.2728 11.3565 12.8643 9.99999 12.8986C8.64344 12.8643 7.31269 13.2728 6.20931 14.0621C5.10592 14.8514 4.29003 15.9785 3.88522 17.2727C2.99656 16.4413 2.28805 15.4365 1.80353 14.3206C1.31901 13.2047 1.06877 12.0013 1.06829 10.7848ZM4.76696 18.0021C5.05356 16.837 5.72714 15.8034 6.67765 15.0703C7.62816 14.3372 8.7994 13.9479 9.99999 13.966C11.2006 13.9479 12.3718 14.3372 13.3223 15.0703C14.2728 15.8034 14.9464 16.8369 15.233 18.0021C13.7142 19.1118 11.8815 19.7099 9.99999 19.7099C8.11847 19.7099 6.28575 19.1118 4.76696 18.0021ZM9.99999 11.28C10.6909 11.28 11.3663 11.0752 11.9407 10.6916C12.5152 10.308 12.9629 9.76286 13.2273 9.12502C13.4917 8.48718 13.5608 7.78534 13.426 7.10824C13.2912 6.43114 12.9584 5.80919 12.4698 5.32104C11.9813 4.8329 11.3588 4.50048 10.6812 4.36583C10.0035 4.23118 9.30112 4.30033 8.66281 4.56456C8.0245 4.82878 7.47894 5.2762 7.09511 5.85024C6.71128 6.42428 6.50643 7.09916 6.50646 7.78953C6.5075 8.715 6.87591 9.60226 7.53086 10.2566C8.18581 10.911 9.0738 11.279 9.99999 11.28ZM9.99999 5.36621C10.4796 5.36625 10.9484 5.50839 11.3472 5.77466C11.746 6.04094 12.0568 6.41938 12.2403 6.86214C12.4238 7.30491 12.4718 7.7921 12.3782 8.26213C12.2847 8.73215 12.0537 9.1639 11.7146 9.50277C11.3754 9.84164 10.9433 10.0724 10.4729 10.1659C10.0025 10.2594 9.51497 10.2115 9.07186 10.0281C8.62875 9.84469 8.25001 9.53414 7.98353 9.13569C7.71705 8.73723 7.57479 8.26877 7.57476 7.78953C7.57548 7.14705 7.83123 6.53109 8.28589 6.07678C8.74056 5.62248 9.357 5.36693 9.99999 5.36621Z" fill="#286248"/>
</svg>
