<svg width="20" height="21" viewBox="0 0 20 21" fill="none" xmlns="http://www.w3.org/2000/svg">
    <circle cx="10" cy="10" r="9.5" stroke="#286248"/>
    <path d="M14.1117 5.87844L14.0918 5.86223L13.7422 5.59372L13.7211 5.57925L13.3478 5.33793L13.3261 5.32462L12.9317 5.11223L12.9087 5.10066L12.4964 4.91836L12.4721 4.90853L12.0451 4.75807L12.0202 4.74996L11.5804 4.63133L11.5548 4.62554L11.1061 4.54047L11.0799 4.53642L10.6248 4.48492L10.5986 4.48318L10.1403 4.46582H10.1269C9.95682 4.46582 9.81494 4.58735 9.8079 4.74302C9.80406 4.82693 9.8405 4.90389 9.90122 4.95945C9.95619 5.00864 10.0303 5.04047 10.1141 5.04336L10.559 5.06014L10.9879 5.10876L11.411 5.1892L11.8252 5.30089L12.2279 5.44325L12.6166 5.61454L12.9879 5.81535L13.3395 6.04279L13.6693 6.29568L13.9749 6.5723L14.2542 6.87091L14.5054 7.18919L14.7266 7.52541L14.9164 7.87726L15.0737 8.24184L15.197 8.61683L15.2859 8.99993L15.3396 9.38824L15.3581 9.7916C15.3613 9.86683 15.3965 9.93396 15.4508 9.98374C15.509 10.0364 15.5889 10.0682 15.6764 10.0682H15.6899C15.8663 10.0613 16.0031 9.92702 15.996 9.76731L15.9769 9.35237L15.9749 9.32865L15.918 8.91662L15.9136 8.89289L15.8196 8.48664L15.8132 8.46349L15.6822 8.06534L15.6732 8.04277L15.507 7.6562L15.4962 7.6342L15.2948 7.26094L15.282 7.24011L15.0475 6.88305L15.0327 6.86337L14.7662 6.52541L14.7502 6.50632L14.4536 6.18977L14.4357 6.17183L14.1117 5.87844ZM12.7176 7.56659L12.5712 7.43406L12.552 7.41786L12.3935 7.29691L12.373 7.28186L12.2043 7.17307L12.1825 7.15976L12.0042 7.06427L11.9812 7.0527L11.7952 6.97052L11.7709 6.96068L11.5779 6.8924L11.5529 6.88487L11.3548 6.83105L11.3292 6.82527L11.1266 6.78707L11.1004 6.78302L10.8946 6.75987L10.8684 6.75814L10.6619 6.75003H10.6485C10.4784 6.75003 10.3372 6.87156 10.3301 7.02666C10.3263 7.11057 10.3621 7.18753 10.4228 7.24309C10.4778 7.29228 10.552 7.32411 10.6351 7.327L10.8294 7.33452L11.0084 7.35478L11.1854 7.38834L11.3586 7.43464L11.5267 7.49424L11.6891 7.566L11.8444 7.64991L11.9914 7.74482L12.1295 7.85072L12.2574 7.96646L12.3743 8.09146L12.4792 8.22457L12.5718 8.36461L12.6511 8.51218L12.7169 8.66437L12.7681 8.82178L12.8052 8.9815L12.8275 9.14412L12.8358 9.31947C12.839 9.3947 12.8742 9.46183 12.9285 9.5116H12.9292C12.9867 9.56369 13.0666 9.59609 13.1542 9.59609C13.1586 9.59609 13.1631 9.59609 13.1676 9.59551C13.3434 9.58915 13.4802 9.45489 13.4731 9.29517L13.4642 9.10826L13.4623 9.08453L13.4367 8.89819L13.4322 8.87446L13.39 8.69101L13.3836 8.66786L13.3242 8.48847L13.3159 8.4659L13.2405 8.29113L13.2296 8.26914L13.1388 8.10074L13.126 8.0799L13.0206 7.91845L13.0059 7.89878L12.8857 7.74601L12.8691 7.72749L12.7355 7.58397L12.7176 7.56659ZM7.98355 7.85709C8.07304 7.9439 8.06921 8.07816 7.97588 8.16322C6.70961 9.30964 6.59839 9.41034 6.59839 9.41034C6.47375 9.5226 6.49548 9.691 6.59839 9.81774L6.60223 9.82295C7.08099 10.4173 7.63263 11 8.23667 11.547C8.84776 12.1002 9.49335 12.5979 10.1581 13.0342L10.16 13.0354C10.2795 13.0898 10.4355 13.0649 10.5352 12.9746C10.6465 12.8739 11.9127 11.7275 11.9127 11.7275C12.006 11.643 12.1556 11.6413 12.2515 11.7217L13.9723 13.2802C14.0624 13.3665 14.0605 13.503 13.9672 13.5875L12.9617 14.4967C12.7827 14.6517 12.5584 14.7276 12.3276 14.7316H12.3263C11.5242 14.7403 10.6906 14.6066 9.87442 14.3323L9.83096 14.3138C8.94055 13.8028 8.05845 13.1674 7.22178 12.4098C6.37419 11.6424 5.66404 10.8317 5.09581 10.0139L5.07472 9.97458C4.78004 9.24773 4.63558 8.50582 4.64262 7.79117V7.78712C4.64645 7.57704 4.74489 7.37624 4.91748 7.21362L5.92167 6.30333C6.01499 6.21883 6.16521 6.2171 6.26108 6.29812L7.98355 7.85709ZM12.6971 11.3107V11.3113C12.3545 11.0075 11.808 11.0104 11.4666 11.3165L10.272 12.397C9.73183 12.0243 9.20065 11.6047 8.68673 11.1394L8.68609 11.1388C8.15044 10.6539 7.66976 10.1516 7.24468 9.64062L8.42977 8.56655C8.76727 8.25753 8.76855 7.761 8.43361 7.45023L6.70839 5.88889C6.36577 5.58565 5.8167 5.58623 5.47536 5.89179L4.44304 6.82813C4.17266 7.09143 4.01413 7.41725 4.00327 7.75405V7.75926C3.99432 8.57176 4.16371 9.41037 4.50249 10.224L4.53061 10.2726C5.13785 11.1569 5.89148 12.0203 6.77161 12.8172C7.64349 13.6066 8.58438 14.2836 9.55212 14.8294C9.58792 14.8496 9.60837 14.8542 9.60837 14.8542H9.60901C10.502 15.1604 11.4198 15.3149 12.3134 15.3091H12.316C12.7014 15.3079 13.0856 15.1795 13.3873 14.9254L14.4209 13.9908C14.7584 13.6818 14.7597 13.1853 14.4247 12.8745L12.6971 11.3107Z" fill="#286248"/>
</svg>
