<svg width="81" height="80" viewBox="0 0 81 80" fill="none" xmlns="http://www.w3.org/2000/svg">
    <path d="M80.0073 39.0074C79.7065 28.3084 75.3081 18.4054 67.5073 11.0074C59.8081 3.60903 49.6093 -0.191568 39.0073 0.00743213C28.3083 0.308212 18.4053 4.70663 11.0073 12.5074C3.70646 20.2066 -0.191741 30.4054 0.00725901 41.1094C0.308039 51.8084 4.70646 61.7114 12.5073 69.1094C20.0073 76.1094 29.7063 80.0074 40.0073 80.0074H41.1089C51.8079 79.7067 61.7109 75.3082 69.1089 67.5074C76.4058 59.8082 80.3083 49.6094 80.0073 39.0074ZM39.7063 13.0074C46.1047 12.8082 51.4053 17.9058 51.5073 24.2064C51.7065 30.6048 46.6089 35.9054 40.3083 36.0074C33.9099 36.2067 28.6093 31.109 28.5073 24.8084C28.308 18.5076 33.3081 13.2064 39.7063 13.0074ZM63.2063 59.9054C57.8079 66.2062 49.8083 70.3034 40.8083 70.5074C31.3083 70.7067 22.6093 66.609 16.9103 59.9054C16.0118 58.9054 15.6095 57.507 15.7111 56.2062C16.7111 47.1046 24.4103 40.0072 33.8131 40.0072H46.2111C55.6095 40.0072 63.3131 47.1088 64.3131 56.2062C64.5084 57.507 64.0084 58.8078 63.2076 59.9054H63.2063Z" fill="#5A9130"/>
</svg>