<svg width="84" height="85" viewBox="0 0 84 85" fill="none" xmlns="http://www.w3.org/2000/svg">
    <path d="M74.8751 42.0076H19.7811C15.2538 42.0193 11.5858 45.6873 11.5741 50.2185V78.0075C11.5819 79.2887 11.0663 80.5153 10.1483 81.4059C9.24206 82.3121 7.99991 82.8043 6.71861 82.7575C4.14051 82.6911 2.08581 80.5856 2.07411 78.0075V27.8195C2.0663 26.1867 2.70692 24.6203 3.85931 23.464C5.01161 22.3038 6.57811 21.6554 8.21091 21.6554H12.7226L12.7187 19.5695H8.2109C3.6797 19.5773 0.0078 23.2492 0 27.7804V78.0074C0.019531 81.359 2.4531 84.2105 5.7617 84.7496C5.93748 84.8902 6.15232 84.9683 6.37498 84.9762H74.875C79.4062 84.9723 83.0781 81.3004 83.0859 76.7692V50.2182C83.0781 45.687 79.4063 42.0154 74.8751 42.0076ZM24.3361 45.7498C23.1291 46.867 22.4299 48.4295 22.3986 50.0701L21.7502 78.7071C21.6994 80.3751 20.9963 81.9571 19.7932 83.1133C19.3869 83.5156 18.7307 83.5156 18.3244 83.1133C18.1291 82.918 18.0158 82.6524 18.0158 82.375C18.0158 82.0977 18.1291 81.8281 18.3244 81.6328C19.1447 80.8555 19.6252 79.7851 19.6682 78.6562L20.3361 50.0312C20.3791 47.8242 21.3205 45.7265 22.9377 44.2265C23.137 44.0156 23.4104 43.8984 23.6995 43.8984C23.9885 43.8984 24.2659 44.0195 24.4612 44.2304C24.6604 44.4414 24.7581 44.7226 24.7385 45.0117C24.719 45.3007 24.5784 45.5664 24.3557 45.75L24.3361 45.7498ZM72.7111 79.2928L51.3441 79.2889C48.8597 79.2889 46.8441 77.2772 46.8441 74.7889C46.8441 72.3045 48.8597 70.2889 51.3441 70.2889H72.7111C75.1955 70.2889 77.2111 72.3045 77.2111 74.7889C77.2111 77.2772 75.1955 79.2889 72.7111 79.2889V79.2928ZM75.1252 74.7811C75.1252 76.1131 74.0432 77.1952 72.7111 77.1952H51.3441C50.0121 77.1952 48.93 76.1132 48.93 74.7811C48.93 73.4452 50.012 72.3631 51.3441 72.3631H72.7111C73.3517 72.3631 73.965 72.617 74.4181 73.0701C74.8712 73.5232 75.1252 74.1405 75.1252 74.7811ZM20.2732 39.9261V9.83209C20.2732 7.68759 21.7459 5.82429 23.8357 5.33209V39.9261H20.2732ZM14.7927 21.6561V14.3631C14.8005 12.2889 16.1872 10.4686 18.1872 9.91389V40.0619C16.9958 40.2455 15.8474 40.64 14.7927 41.226V21.6561ZM74.8747 39.9261H75.4177V4.62509C75.4138 2.07039 73.3435 0.00399381 70.7927 9.38132e-05H30.5857C29.3513 -0.00771919 28.1677 0.472754 27.2888 1.33989C26.4138 2.21098 25.9216 3.39069 25.9177 4.62509V39.9261H74.8747ZM64.7107 7.28109C64.7107 6.70297 65.1755 6.23809 65.7498 6.23809H69.9178C70.1951 6.23809 70.4608 6.34747 70.6561 6.54278C70.8514 6.73809 70.9608 7.00372 70.9608 7.28106V35.9691C70.9608 36.5433 70.492 37.0082 69.9178 37.0082C69.3435 37.0082 68.8748 36.5433 68.8748 35.9691V8.32106H66.7928V35.9691C66.7928 36.5433 66.3279 37.0082 65.7498 37.0082C65.1756 37.0082 64.7107 36.5433 64.7107 35.9691L64.7107 7.28109ZM56.281 20.2891C56.281 19.7149 56.7498 19.25 57.324 19.25H61.492C61.7654 19.25 62.0311 19.3594 62.2264 19.5547C62.4217 19.75 62.5311 20.0156 62.5311 20.2891V35.9691C62.5311 36.5433 62.0662 37.0082 61.492 37.0082C60.9139 37.0082 60.449 36.5433 60.449 35.9691V21.3871H58.367V35.9691C58.367 36.5433 57.8982 37.0082 57.324 37.0082C56.7497 37.0082 56.281 36.5433 56.281 35.9691L56.281 20.2891ZM47.8669 12.0703C47.8669 11.4961 48.3317 11.0312 48.906 11.0312H53.074C53.3513 11.0312 53.617 11.1406 53.8123 11.3359C54.0076 11.5312 54.117 11.7968 54.117 12.0703V35.9683C54.117 36.5425 53.6482 37.0074 53.074 37.0074C52.4997 37.0074 52.031 36.5425 52.031 35.9683V13.1133H49.949V35.9683C49.949 36.5425 49.4841 37.0074 48.906 37.0074C48.3318 37.0074 47.8669 36.5425 47.8669 35.9683L47.8669 12.0703ZM39.4607 15.2891C39.4607 14.7149 39.9255 14.25 40.4998 14.25H44.617C44.8904 14.25 45.1561 14.3594 45.3514 14.5547C45.5467 14.75 45.6561 15.0156 45.6561 15.2891V35.9691C45.6561 36.5433 45.1912 37.0082 44.617 37.0082C44.0389 37.0082 43.574 36.5433 43.574 35.9691V16.3321H41.5428V35.9691C41.5428 36.5433 41.0779 37.0082 40.4998 37.0082C39.9256 37.0082 39.4607 36.5433 39.4607 35.9691L39.4607 15.2891ZM31.0232 25.6251C31.0232 25.047 31.488 24.5821 32.0623 24.5821H36.2303C36.5076 24.5821 36.7733 24.6915 36.9686 24.8868C37.1639 25.0821 37.2733 25.3477 37.2733 25.6251V35.9691C37.2733 36.5433 36.8045 37.0082 36.2303 37.0082C35.656 37.0082 35.1873 36.5433 35.1873 35.9691V26.6644H33.1053V35.9691C33.1053 36.5433 32.6404 37.0082 32.0623 37.0082C31.4881 37.0082 31.0232 36.5433 31.0232 35.9691L31.0232 25.6251Z" fill="#5A9130"/>
</svg>
