<svg width="87" height="86" viewBox="0 0 87 86" fill="none" xmlns="http://www.w3.org/2000/svg">
    <mask id="path-1-outside-1_322_909" maskUnits="userSpaceOnUse" x="0" y="0" width="87" height="86" fill="black">
        <rect fill="white" width="87" height="86"/>
        <path d="M76.3522 41.8826V6.1016C76.3209 3.8516 74.5006 2.0313 72.2506 2H32.0626C29.8087 2.03125 27.9923 3.8516 27.9571 6.1016V7.2071H26.3516C24.1016 7.24226 22.2813 9.0587 22.25 11.3126V11.7931L20.8945 11.7892C18.6367 11.8243 16.8164 13.6486 16.789 15.9064V39.1564C16.789 39.2931 16.8437 39.4259 16.9413 39.5236C17.039 39.6212 17.1718 39.6759 17.3124 39.6759C17.4491 39.6759 17.582 39.6212 17.6796 39.5236C17.7773 39.4259 17.832 39.2931 17.832 39.1564V15.9064C17.8593 14.2228 19.2148 12.8673 20.8945 12.8322H22.2695V39.1562C22.2695 39.2929 22.3241 39.4257 22.4218 39.5234C22.5194 39.621 22.6523 39.6757 22.789 39.6757C22.9296 39.6757 23.0624 39.621 23.1601 39.5234C23.2577 39.4257 23.3124 39.2929 23.3124 39.1562V11.3122C23.3124 9.62856 24.6679 8.26136 26.3515 8.24966H27.9335L27.9374 41.8827H21.2577C17.0155 41.8905 13.578 45.328 13.5702 49.5702V77.4062C13.578 78.8242 13.0077 80.1874 11.9882 81.1757C10.9765 82.1717 9.60542 82.7148 8.18742 82.6757C5.30852 82.6249 2.99602 80.2851 2.97652 77.4062V27.2182C2.98042 25.4448 3.69136 23.7455 4.94922 22.4994C6.20702 21.2494 7.91402 20.558 9.68752 20.5697H15.4805H15.4766C15.6172 20.5697 15.7501 20.515 15.8477 20.4173C15.9454 20.3197 16 20.1869 16 20.0501C15.9922 19.765 15.7618 19.5345 15.4766 19.5306H9.6875C5.4414 19.5345 2.0039 22.972 2 27.2181V77.4061C2.01953 80.828 4.75 83.6209 8.1758 83.7186H8.32033C11.8047 83.7108 14.625 80.8866 14.625 77.4061V49.6131C14.6172 47.8475 15.3086 46.1483 16.5547 44.8943C17.8008 43.6403 19.4922 42.9295 21.2578 42.9255H26.1758C23.8477 44.2614 22.3828 46.7107 22.3125 49.3943L21.6446 78.0193C21.5977 80.6638 19.4376 82.781 16.7891 82.7693H14.0938C13.8047 82.7693 13.5703 83.0037 13.5703 83.2888C13.5781 83.574 13.8086 83.8045 14.0938 83.8123H16.793H16.7891C20 83.8279 22.6289 81.2615 22.6875 78.0506L23.3554 49.4136H23.3515C23.4609 45.8159 26.3984 42.9448 29.9999 42.9253H76.3519C78.1175 42.9253 79.805 43.6245 81.0511 44.8706C82.2972 46.1167 83.0003 47.8081 83.0003 49.5698V76.1638C82.9925 79.8318 80.0198 82.8044 76.3519 82.8122H26.9689C26.6799 82.8122 26.4455 83.0426 26.4455 83.3317C26.4533 83.6169 26.6838 83.8473 26.9689 83.8512H76.3519C80.598 83.8473 84.0355 80.4098 84.0394 76.1637V49.6127C84.0472 47.5658 83.2425 45.6049 81.8011 44.1518C80.3597 42.7026 78.3991 41.8865 76.3522 41.8826ZM33.5402 41.8826H29.0011V6.1016C29.0011 4.4102 30.3722 3.0391 32.0636 3.0391H72.2826C73.9623 3.05863 75.3138 4.4219 75.3138 6.1016V41.8826H33.5402ZM38.1847 27.0586V37.4026L38.1886 37.4065C38.1886 37.5432 38.1339 37.676 38.0363 37.7737C37.9386 37.8714 37.8058 37.926 37.6652 37.926C37.38 37.926 37.1456 37.6917 37.1456 37.4065V27.6253H34.0206V37.4495V37.4456C34.0206 37.5862 33.9659 37.719 33.8683 37.8167C33.7706 37.9143 33.6378 37.969 33.5011 37.969C33.2121 37.969 32.9777 37.7346 32.9777 37.4456V27.1016C32.9855 26.8164 33.216 26.586 33.5011 26.5821H37.6691H37.6652C37.9504 26.586 38.1808 26.8164 38.1886 27.1016L38.1847 27.0586ZM46.6027 16.7266V37.4456C46.6027 37.5862 46.548 37.719 46.4504 37.8167C46.3527 37.9143 46.2199 37.969 46.0832 37.969C45.7941 37.969 45.5636 37.7346 45.5636 37.4456V17.2896H42.4894V37.4456C42.4894 37.5862 42.4347 37.719 42.3371 37.8167C42.2394 37.9143 42.1066 37.969 41.9699 37.969C41.6808 37.969 41.4465 37.7346 41.4465 37.4456V16.7696C41.4465 16.4805 41.6808 16.25 41.9699 16.25H46.0832C46.3723 16.25 46.6027 16.4805 46.6027 16.7696L46.6027 16.7266ZM55.0207 13.5078V37.4458C55.0207 37.5864 54.966 37.7192 54.8684 37.8169C54.7707 37.9145 54.6379 37.9692 54.5012 37.9692C54.2121 37.9692 53.9777 37.7349 53.9777 37.4458V14.0708H50.8527V37.4458C50.8527 37.7349 50.6223 37.9692 50.3332 37.9692C50.0441 37.9692 49.8137 37.7349 49.8137 37.4458V13.5508C49.8137 13.2617 50.0441 13.0313 50.3332 13.0313H54.5012C54.6379 13.0313 54.7707 13.0859 54.8684 13.1836C54.966 13.2813 55.0207 13.4141 55.0207 13.5508L55.0207 13.5078ZM63.4465 21.7266V37.4456C63.4465 37.5862 63.3918 37.719 63.2941 37.8167C63.1965 37.9143 63.0637 37.969 62.927 37.969C62.6379 37.969 62.4074 37.7346 62.4074 37.4456V22.2896H59.2824V37.4456C59.2824 37.5862 59.2277 37.719 59.1301 37.8167C59.0324 37.9143 58.8996 37.969 58.759 37.969C58.4738 37.969 58.2395 37.7346 58.2395 37.4456V21.8206C58.2395 21.5354 58.4738 21.3011 58.759 21.3011H62.927C63.1965 21.3011 63.4192 21.5042 63.4465 21.7698L63.4465 21.7266ZM71.8645 8.7576V37.4456C71.8645 37.5862 71.8098 37.719 71.7122 37.8167C71.6145 37.9143 71.4817 37.969 71.345 37.969C71.0559 37.969 70.8215 37.7346 70.8215 37.4456V9.32059H67.6965V37.4456C67.6965 37.5862 67.6418 37.719 67.5442 37.8167C67.4465 37.9143 67.3137 37.969 67.177 37.969C66.8879 37.969 66.6575 37.7346 66.6575 37.4456V8.75758C66.6575 8.47242 66.8879 8.23805 67.177 8.23805H71.345C71.4817 8.23805 71.6145 8.29274 71.7122 8.39039C71.8098 8.48804 71.8645 8.62088 71.8645 8.7576ZM74.1887 78.1636C76.384 78.1636 78.1653 76.3824 78.1653 74.187C78.1653 71.9878 76.3841 70.2065 74.1887 70.2065H52.8217C50.6264 70.2065 48.8451 71.9877 48.8451 74.187C48.8451 76.3823 50.6263 78.1636 52.8217 78.1636H74.1887ZM49.8837 74.1753C49.8837 72.5542 51.2001 71.2378 52.8212 71.2378H74.1882C75.8093 71.2378 77.1257 72.5542 77.1257 74.1753C77.1257 75.7964 75.8093 77.1128 74.1882 77.1128H52.8212C51.2001 77.1128 49.8837 75.7964 49.8837 74.1753Z"/>
    </mask>
    <path d="M76.3522 41.8826V6.1016C76.3209 3.8516 74.5006 2.0313 72.2506 2H32.0626C29.8087 2.03125 27.9923 3.8516 27.9571 6.1016V7.2071H26.3516C24.1016 7.24226 22.2813 9.0587 22.25 11.3126V11.7931L20.8945 11.7892C18.6367 11.8243 16.8164 13.6486 16.789 15.9064V39.1564C16.789 39.2931 16.8437 39.4259 16.9413 39.5236C17.039 39.6212 17.1718 39.6759 17.3124 39.6759C17.4491 39.6759 17.582 39.6212 17.6796 39.5236C17.7773 39.4259 17.832 39.2931 17.832 39.1564V15.9064C17.8593 14.2228 19.2148 12.8673 20.8945 12.8322H22.2695V39.1562C22.2695 39.2929 22.3241 39.4257 22.4218 39.5234C22.5194 39.621 22.6523 39.6757 22.789 39.6757C22.9296 39.6757 23.0624 39.621 23.1601 39.5234C23.2577 39.4257 23.3124 39.2929 23.3124 39.1562V11.3122C23.3124 9.62856 24.6679 8.26136 26.3515 8.24966H27.9335L27.9374 41.8827H21.2577C17.0155 41.8905 13.578 45.328 13.5702 49.5702V77.4062C13.578 78.8242 13.0077 80.1874 11.9882 81.1757C10.9765 82.1717 9.60542 82.7148 8.18742 82.6757C5.30852 82.6249 2.99602 80.2851 2.97652 77.4062V27.2182C2.98042 25.4448 3.69136 23.7455 4.94922 22.4994C6.20702 21.2494 7.91402 20.558 9.68752 20.5697H15.4805H15.4766C15.6172 20.5697 15.7501 20.515 15.8477 20.4173C15.9454 20.3197 16 20.1869 16 20.0501C15.9922 19.765 15.7618 19.5345 15.4766 19.5306H9.6875C5.4414 19.5345 2.0039 22.972 2 27.2181V77.4061C2.01953 80.828 4.75 83.6209 8.1758 83.7186H8.32033C11.8047 83.7108 14.625 80.8866 14.625 77.4061V49.6131C14.6172 47.8475 15.3086 46.1483 16.5547 44.8943C17.8008 43.6403 19.4922 42.9295 21.2578 42.9255H26.1758C23.8477 44.2614 22.3828 46.7107 22.3125 49.3943L21.6446 78.0193C21.5977 80.6638 19.4376 82.781 16.7891 82.7693H14.0938C13.8047 82.7693 13.5703 83.0037 13.5703 83.2888C13.5781 83.574 13.8086 83.8045 14.0938 83.8123H16.793H16.7891C20 83.8279 22.6289 81.2615 22.6875 78.0506L23.3554 49.4136H23.3515C23.4609 45.8159 26.3984 42.9448 29.9999 42.9253H76.3519C78.1175 42.9253 79.805 43.6245 81.0511 44.8706C82.2972 46.1167 83.0003 47.8081 83.0003 49.5698V76.1638C82.9925 79.8318 80.0198 82.8044 76.3519 82.8122H26.9689C26.6799 82.8122 26.4455 83.0426 26.4455 83.3317C26.4533 83.6169 26.6838 83.8473 26.9689 83.8512H76.3519C80.598 83.8473 84.0355 80.4098 84.0394 76.1637V49.6127C84.0472 47.5658 83.2425 45.6049 81.8011 44.1518C80.3597 42.7026 78.3991 41.8865 76.3522 41.8826ZM33.5402 41.8826H29.0011V6.1016C29.0011 4.4102 30.3722 3.0391 32.0636 3.0391H72.2826C73.9623 3.05863 75.3138 4.4219 75.3138 6.1016V41.8826H33.5402ZM38.1847 27.0586V37.4026L38.1886 37.4065C38.1886 37.5432 38.1339 37.676 38.0363 37.7737C37.9386 37.8714 37.8058 37.926 37.6652 37.926C37.38 37.926 37.1456 37.6917 37.1456 37.4065V27.6253H34.0206V37.4495V37.4456C34.0206 37.5862 33.9659 37.719 33.8683 37.8167C33.7706 37.9143 33.6378 37.969 33.5011 37.969C33.2121 37.969 32.9777 37.7346 32.9777 37.4456V27.1016C32.9855 26.8164 33.216 26.586 33.5011 26.5821H37.6691H37.6652C37.9504 26.586 38.1808 26.8164 38.1886 27.1016L38.1847 27.0586ZM46.6027 16.7266V37.4456C46.6027 37.5862 46.548 37.719 46.4504 37.8167C46.3527 37.9143 46.2199 37.969 46.0832 37.969C45.7941 37.969 45.5636 37.7346 45.5636 37.4456V17.2896H42.4894V37.4456C42.4894 37.5862 42.4347 37.719 42.3371 37.8167C42.2394 37.9143 42.1066 37.969 41.9699 37.969C41.6808 37.969 41.4465 37.7346 41.4465 37.4456V16.7696C41.4465 16.4805 41.6808 16.25 41.9699 16.25H46.0832C46.3723 16.25 46.6027 16.4805 46.6027 16.7696L46.6027 16.7266ZM55.0207 13.5078V37.4458C55.0207 37.5864 54.966 37.7192 54.8684 37.8169C54.7707 37.9145 54.6379 37.9692 54.5012 37.9692C54.2121 37.9692 53.9777 37.7349 53.9777 37.4458V14.0708H50.8527V37.4458C50.8527 37.7349 50.6223 37.9692 50.3332 37.9692C50.0441 37.9692 49.8137 37.7349 49.8137 37.4458V13.5508C49.8137 13.2617 50.0441 13.0313 50.3332 13.0313H54.5012C54.6379 13.0313 54.7707 13.0859 54.8684 13.1836C54.966 13.2813 55.0207 13.4141 55.0207 13.5508L55.0207 13.5078ZM63.4465 21.7266V37.4456C63.4465 37.5862 63.3918 37.719 63.2941 37.8167C63.1965 37.9143 63.0637 37.969 62.927 37.969C62.6379 37.969 62.4074 37.7346 62.4074 37.4456V22.2896H59.2824V37.4456C59.2824 37.5862 59.2277 37.719 59.1301 37.8167C59.0324 37.9143 58.8996 37.969 58.759 37.969C58.4738 37.969 58.2395 37.7346 58.2395 37.4456V21.8206C58.2395 21.5354 58.4738 21.3011 58.759 21.3011H62.927C63.1965 21.3011 63.4192 21.5042 63.4465 21.7698L63.4465 21.7266ZM71.8645 8.7576V37.4456C71.8645 37.5862 71.8098 37.719 71.7122 37.8167C71.6145 37.9143 71.4817 37.969 71.345 37.969C71.0559 37.969 70.8215 37.7346 70.8215 37.4456V9.32059H67.6965V37.4456C67.6965 37.5862 67.6418 37.719 67.5442 37.8167C67.4465 37.9143 67.3137 37.969 67.177 37.969C66.8879 37.969 66.6575 37.7346 66.6575 37.4456V8.75758C66.6575 8.47242 66.8879 8.23805 67.177 8.23805H71.345C71.4817 8.23805 71.6145 8.29274 71.7122 8.39039C71.8098 8.48804 71.8645 8.62088 71.8645 8.7576ZM74.1887 78.1636C76.384 78.1636 78.1653 76.3824 78.1653 74.187C78.1653 71.9878 76.3841 70.2065 74.1887 70.2065H52.8217C50.6264 70.2065 48.8451 71.9877 48.8451 74.187C48.8451 76.3823 50.6263 78.1636 52.8217 78.1636H74.1887ZM49.8837 74.1753C49.8837 72.5542 51.2001 71.2378 52.8212 71.2378H74.1882C75.8093 71.2378 77.1257 72.5542 77.1257 74.1753C77.1257 75.7964 75.8093 77.1128 74.1882 77.1128H52.8212C51.2001 77.1128 49.8837 75.7964 49.8837 74.1753Z" stroke="#898989" stroke-width="4" mask="url(#path-1-outside-1_322_909)"/>
</svg>
