<svg width="23" height="23" viewBox="0 0 23 23" fill="none" xmlns="http://www.w3.org/2000/svg">
    <path d="M14.7586 3.17492C14.9251 3.23191 15.0879 3.29433 15.2471 3.36037C15.409 3.42731 15.5683 3.49877 15.723 3.57386C15.7944 3.60823 15.8686 3.6227 15.9401 3.61818C16.0106 3.61366 16.0821 3.58743 16.1472 3.5431L16.9822 2.97321C17.1586 2.8529 17.3649 2.80314 17.5639 2.82124C17.7647 2.84023 17.9583 2.92617 18.1094 3.07815L20.2959 5.26457C20.447 5.41564 20.5338 5.60923 20.5528 5.81005C20.5718 6.00907 20.5221 6.21622 20.4009 6.39261L19.8309 7.22757C19.7866 7.2927 19.7613 7.36326 19.7559 7.43472C19.7513 7.50619 19.7658 7.58037 19.8002 7.65183C19.8753 7.80652 19.9467 7.96573 20.0164 8.13307C20.0824 8.29409 20.144 8.4542 20.2 8.61702C20.2254 8.6912 20.2679 8.75362 20.3222 8.79975C20.3755 8.84589 20.4443 8.87845 20.5212 8.89293L21.5136 9.08018C21.7253 9.11998 21.9062 9.23034 22.0338 9.38503C22.1622 9.53972 22.2373 9.73781 22.2373 9.95221V13.0449C22.2373 13.2593 22.1622 13.4574 22.0338 13.6121C21.9053 13.7668 21.7244 13.8772 21.5136 13.917L20.5212 14.1042C20.4434 14.1187 20.3755 14.1513 20.3222 14.1974C20.2679 14.2435 20.2254 14.3069 20.2 14.3801C20.1421 14.5484 20.0797 14.7112 20.0137 14.8713C19.9476 15.0323 19.8753 15.1916 19.8002 15.3462C19.7658 15.4186 19.7504 15.4928 19.7559 15.5634C19.7604 15.6348 19.7866 15.7063 19.8309 15.7705L20.4009 16.6055C20.5212 16.7819 20.5709 16.9881 20.5528 17.188C20.5338 17.3879 20.447 17.5815 20.295 17.7326L18.1094 19.919C17.9583 20.0701 17.7647 20.1569 17.563 20.1759C17.364 20.1949 17.1577 20.1452 16.9813 20.024L16.1463 19.4541C16.0812 19.4097 16.0106 19.3844 15.9392 19.379C15.8677 19.3745 15.7935 19.3889 15.7221 19.4233C15.5674 19.4984 15.4072 19.5708 15.239 19.6404C15.0789 19.7065 14.9196 19.7671 14.7568 19.8232C14.6844 19.8485 14.622 19.8901 14.5705 19.9507C14.5243 20.0077 14.4945 20.0719 14.4809 20.1443L14.2936 21.1366C14.2538 21.3483 14.1435 21.5292 13.9888 21.6568C13.8341 21.7852 13.636 21.8603 13.4216 21.8603H10.3294C10.1159 21.8603 9.91781 21.7843 9.76221 21.6559C9.60752 21.5283 9.49716 21.3474 9.45735 21.1357L9.27009 20.1443C9.25561 20.0665 9.22305 19.9987 9.17691 19.9453C9.12987 19.891 9.06745 19.8485 8.99327 19.8232C8.8232 19.7644 8.65946 19.702 8.49844 19.635C8.33108 19.5654 8.17639 19.4957 8.02803 19.4233C7.95657 19.389 7.88239 19.3745 7.81092 19.379C7.74036 19.3835 7.66889 19.4098 7.60466 19.4541L6.76967 20.024C6.59327 20.1443 6.38702 20.1941 6.18709 20.176C5.98626 20.157 5.79267 20.071 5.64159 19.919L3.4406 17.7163C3.29857 17.5671 3.21625 17.3798 3.19815 17.1881C3.17915 16.9881 3.22891 16.7819 3.35013 16.6046L3.91914 15.7706C3.96347 15.7054 3.9888 15.6349 3.99423 15.5634C3.99875 15.4919 3.98427 15.4178 3.9499 15.3463C3.87572 15.1943 3.80425 15.036 3.7364 14.8696C3.67127 14.714 3.60885 14.5502 3.55004 14.3793C3.52381 14.3042 3.48129 14.2427 3.42792 14.1956C3.37455 14.1495 3.3067 14.1169 3.2289 14.1025L2.23742 13.9152C2.02574 13.8754 1.84481 13.765 1.71725 13.6104C1.58879 13.4557 1.51371 13.2567 1.51371 13.0432V9.95114C1.51371 9.73675 1.58879 9.53865 1.71725 9.38396C1.84571 9.22927 2.02663 9.11892 2.23742 9.07911L3.2289 8.89186C3.3067 8.87739 3.37455 8.84482 3.42792 8.79869C3.48129 8.75255 3.52381 8.69013 3.55276 8.606C3.61246 8.43594 3.67217 8.27853 3.7355 8.12567C3.80425 7.95922 3.87572 7.80002 3.9517 7.64442C3.98517 7.57205 3.99784 7.50059 3.99332 7.43275C3.98789 7.36128 3.96256 7.29072 3.91823 7.22559L3.34922 6.39154C3.228 6.21424 3.17915 6.008 3.19724 5.80898C3.21624 5.60906 3.30308 5.41548 3.45416 5.2644L5.63977 3.07707C5.79085 2.92601 5.98445 2.83917 6.18528 2.82016C6.3843 2.80116 6.59146 2.85092 6.76786 2.97213L7.60285 3.54203C7.66799 3.58635 7.73855 3.61168 7.81001 3.61711C7.88148 3.62163 7.95566 3.60716 8.02622 3.57278C8.17458 3.49951 8.3347 3.42804 8.50387 3.35839C8.65857 3.29326 8.82231 3.23174 8.99238 3.17295C9.06747 3.14671 9.12989 3.1042 9.17603 3.05083C9.22216 2.99745 9.25473 2.92961 9.2692 2.85181L9.45646 1.86038C9.49627 1.6487 9.60663 1.46778 9.76132 1.34023C9.91602 1.21178 10.115 1.13669 10.3285 1.13669H13.4207C13.6351 1.13669 13.8332 1.21178 13.9879 1.34023C14.1426 1.46869 14.2529 1.6496 14.2928 1.86038L14.48 2.85274C14.4945 2.93054 14.5271 2.99838 14.5732 3.05175C14.6211 3.10693 14.6836 3.14855 14.7568 3.17387L14.7586 3.17492ZM15.4923 2.76966L15.1494 2.63578C15.1123 2.62221 15.0834 2.58965 15.0752 2.54803L14.9232 1.74293C14.8554 1.38199 14.6636 1.07082 14.3977 0.850077C14.1326 0.630258 13.7906 0.5 13.4225 0.5H10.3303C9.96213 0.5 9.62017 0.630263 9.35511 0.850077C9.08916 1.0708 8.89826 1.38109 8.82952 1.74383L8.67935 2.54259C8.67393 2.5833 8.64588 2.62039 8.60427 2.63576L8.2614 2.76965C8.15285 2.81397 8.03886 2.86463 7.92125 2.91891C7.88506 2.93519 7.84254 2.93247 7.80726 2.90896L7.12968 2.4467C6.82572 2.23955 6.47019 2.15542 6.12644 2.18708C5.78358 2.21874 5.44977 2.368 5.19013 2.62851L3.00362 4.81494C2.74399 5.07456 2.59383 5.40836 2.56217 5.75121C2.5305 6.09496 2.61464 6.45046 2.8218 6.75441L3.28046 7.42652C3.30579 7.45908 3.31212 7.50522 3.29403 7.54502C3.1909 7.77931 3.10406 7.99009 3.01087 8.22799C2.9973 8.26508 2.96473 8.29403 2.92312 8.30217L2.11888 8.45323C1.75703 8.52108 1.44584 8.71286 1.22509 8.9788C1.00526 9.24384 0.875 9.58579 0.875 9.95395V13.046C0.875 13.4142 1.00527 13.7561 1.22509 14.0211C1.44582 14.2871 1.75703 14.478 2.11888 14.5467L2.91767 14.6969C2.95838 14.7023 2.99547 14.7303 3.01085 14.772L3.14474 15.1148L3.294 15.4559C3.31029 15.492 3.30757 15.5346 3.28405 15.5698L2.82178 16.2465C2.61462 16.5504 2.52958 16.906 2.56215 17.2497C2.59381 17.5925 2.74398 17.9263 3.0036 18.186L5.19011 20.3724C5.44974 20.632 5.78356 20.7822 6.12642 20.8138C6.47019 20.8455 6.8257 20.7613 7.12966 20.5542L7.80634 20.0919C7.8389 20.0702 7.88142 20.0648 7.91942 20.082L8.25957 20.2303L8.60334 20.3642C8.64043 20.3778 8.66938 20.4104 8.67752 20.452L8.8286 21.2562C8.89644 21.618 9.08823 21.9292 9.35418 22.1499C9.62014 22.3697 9.9612 22.5 10.3294 22.5H13.4215C13.7897 22.5 14.1308 22.3697 14.3967 22.1499C14.6627 21.9292 14.8536 21.618 14.9223 21.2571L15.0734 20.4565C15.0797 20.4158 15.1069 20.3787 15.1485 20.3633L15.4895 20.2295L15.8297 20.0802C15.8659 20.0639 15.9084 20.0666 15.9437 20.0901L16.6213 20.5524C16.9252 20.7596 17.2808 20.8446 17.6245 20.812C17.9656 20.7804 18.2975 20.632 18.5572 20.3751L20.7473 18.1842C21.0078 17.9245 21.1571 17.5907 21.1887 17.2479C21.2204 16.9041 21.1363 16.5486 20.9291 16.2447L20.4696 15.5717C20.4442 15.5391 20.4388 15.493 20.4569 15.4532L20.6052 15.114L20.7391 14.7711C20.7527 14.734 20.7853 14.7051 20.8269 14.6969L21.632 14.545C21.993 14.4771 22.3051 14.2853 22.5249 14.0194C22.7447 13.7543 22.875 13.4124 22.875 13.0442V9.95151C22.875 9.58334 22.7447 9.2423 22.5249 8.97635C22.3042 8.71041 21.9939 8.51862 21.632 8.45079L20.8314 8.29972C20.7907 8.29339 20.7536 8.26625 20.7382 8.22464L20.6044 7.88179L20.4569 7.54438C20.4397 7.50819 20.4406 7.46386 20.465 7.42768L20.9273 6.75103C21.1345 6.44709 21.2195 6.09157 21.187 5.74783C21.1553 5.40498 21.0051 5.07119 20.7455 4.81156L18.559 2.62514C18.2985 2.36461 17.9655 2.21536 17.6227 2.1837C17.2789 2.15204 16.9234 2.23708 16.6194 2.44423L15.9464 2.90377C15.9138 2.9291 15.8677 2.93453 15.8279 2.91644L15.4896 2.76809L15.4923 2.76966ZM11.8765 6.59881C13.2289 6.59881 14.4529 7.147 15.3404 8.03441C16.2287 8.92363 16.7769 10.1476 16.7769 11.4991C16.7769 12.8514 16.2287 14.0754 15.3413 14.9628C14.452 15.8511 13.228 16.3993 11.8765 16.3993C10.524 16.3993 9.30006 15.8511 8.41261 14.9637C7.52426 14.0745 6.97605 12.8505 6.97605 11.499C6.97605 10.1467 7.52426 8.92272 8.41171 8.03532C9.30096 7.147 10.5249 6.59881 11.8765 6.59881ZM11.8765 4.98499C13.674 4.98499 15.3024 5.71409 16.4821 6.8928C17.6617 8.07332 18.3909 9.70161 18.3909 11.4991C18.3909 13.2966 17.6617 14.9249 16.483 16.1045C15.3024 17.2841 13.6741 18.0132 11.8765 18.0132C10.0789 18.0132 8.45059 17.2841 7.27088 16.1054C6.09122 14.9249 5.36209 13.2966 5.36209 11.4991C5.36209 9.70159 6.09122 8.07336 7.26998 6.8937C8.45054 5.71409 10.0789 4.98499 11.8765 4.98499ZM16.1537 7.22208C15.06 6.1275 13.5474 5.45088 11.8765 5.45088C10.2056 5.45088 8.69309 6.12753 7.60022 7.22118C6.5056 8.31576 5.82895 9.82829 5.82895 11.4991C5.82895 13.17 6.50562 14.6824 7.59932 15.7752C8.69394 16.8698 10.2065 17.5464 11.8774 17.5464C13.5483 17.5464 15.0608 16.8698 16.1537 15.7761C17.2483 14.6815 17.925 13.169 17.925 11.4982C17.925 9.82734 17.2483 8.3149 16.1537 7.22115L16.1537 7.22208ZM15.0699 3.78916C14.9161 3.72584 14.7615 3.66704 14.6068 3.61277C14.453 3.55939 14.3227 3.47074 14.2241 3.35585C14.1246 3.24006 14.0558 3.09713 14.026 2.93792L13.8387 1.94556C13.8197 1.84515 13.7673 1.75831 13.694 1.6977C13.6216 1.6371 13.5266 1.60182 13.4235 1.60182H10.3313C10.2282 1.60182 10.1323 1.6371 10.0599 1.6977C9.98665 1.75831 9.93418 1.84425 9.91519 1.94556L9.72793 2.93792C9.69807 3.09713 9.62932 3.24006 9.5289 3.35495C9.42849 3.47164 9.29822 3.56029 9.14535 3.61277C8.99427 3.66433 8.84049 3.72222 8.68398 3.78735C8.53833 3.84706 8.38727 3.91581 8.23166 3.99179C8.08511 4.06235 7.93041 4.0922 7.77845 4.08135C7.62648 4.0705 7.47629 4.01803 7.34332 3.92666L6.50833 3.35677C6.42329 3.29797 6.32468 3.27445 6.2297 3.28259C6.13653 3.29074 6.04516 3.33325 5.97188 3.40653L3.78536 5.59295C3.71118 5.66532 3.66957 5.75668 3.66143 5.85077C3.65238 5.94575 3.67681 6.04435 3.7347 6.12938L4.30371 6.96343C4.39508 7.09731 4.44755 7.24658 4.45841 7.39945C4.46836 7.5469 4.44122 7.69707 4.37156 7.84542C4.29467 8.00373 4.22592 8.15479 4.16531 8.30316C4.10379 8.45151 4.0468 8.60078 3.99252 8.75726C3.93734 8.91918 3.84778 9.04944 3.73198 9.14895C3.61619 9.24936 3.47416 9.31811 3.31494 9.34797L2.32347 9.53522C2.22305 9.55421 2.13621 9.60668 2.0756 9.67995C2.01499 9.75232 1.97971 9.84731 1.97971 9.95044V13.0425C1.97971 13.1456 2.01499 13.2415 2.0756 13.3139C2.13621 13.3871 2.22215 13.4396 2.32347 13.4586L3.31494 13.6458C3.47416 13.6757 3.61709 13.7444 3.73198 13.8449C3.84868 13.9453 3.93734 14.0755 3.98981 14.2284C4.04138 14.3795 4.10018 14.5342 4.16531 14.6916C4.22683 14.8408 4.29558 14.9919 4.36886 15.1439C4.43942 15.2895 4.46927 15.4442 4.45842 15.5962C4.44756 15.749 4.39509 15.8983 4.30372 16.0313L3.73471 16.8653C3.67591 16.9513 3.65239 17.049 3.66053 17.143C3.66867 17.2326 3.70757 17.3203 3.77361 17.3918L5.97098 19.5891C6.04426 19.6623 6.13563 19.7049 6.22881 19.713C6.3238 19.722 6.42241 19.6976 6.50744 19.6388L7.34242 19.0689C7.47631 18.9776 7.62468 18.9251 7.77756 18.9142C7.92953 18.9034 8.08422 18.9332 8.22987 19.0038C8.37823 19.0762 8.52568 19.1431 8.67676 19.2055C8.8396 19.2725 8.9943 19.3313 9.14446 19.3837C9.29824 19.4371 9.42852 19.5258 9.52894 19.6406C9.62845 19.7564 9.69811 19.8985 9.72796 20.0577L9.91522 21.05C9.93422 21.1504 9.98669 21.2373 10.06 21.2979C10.1323 21.3585 10.2264 21.3938 10.3314 21.3938H13.4235C13.5266 21.3938 13.6216 21.3585 13.694 21.2979C13.7673 21.2373 13.8198 21.1513 13.8388 21.05L14.026 20.0568C14.055 19.9048 14.1192 19.7664 14.2178 19.647C14.3227 19.5249 14.453 19.4353 14.6077 19.3829C14.757 19.3313 14.9071 19.2743 15.0627 19.2101C15.2201 19.1449 15.3721 19.0762 15.5214 19.0038C15.667 18.9333 15.8217 18.9034 15.9737 18.9143C16.1257 18.9251 16.2759 18.9776 16.4088 19.069L17.2438 19.6389C17.3289 19.6977 17.4275 19.7212 17.5224 19.7121C17.6156 19.704 17.707 19.6615 17.7803 19.5873L19.9659 17.4018C20.0401 17.3294 20.0817 17.2371 20.0907 17.143C20.0989 17.049 20.0744 16.9504 20.0165 16.8644L19.4466 16.0295C19.3553 15.8956 19.3028 15.7463 19.2919 15.5935C19.2811 15.4415 19.31 15.2868 19.3815 15.1412C19.4539 14.9928 19.5217 14.8426 19.5841 14.6916C19.6475 14.5378 19.7072 14.3822 19.7614 14.2266C19.8148 14.0737 19.9035 13.9435 20.0184 13.8449C20.1342 13.7445 20.2771 13.6757 20.4363 13.6459L21.4287 13.4586C21.5291 13.4396 21.616 13.3872 21.6766 13.3139C21.7372 13.2415 21.7725 13.1465 21.7725 13.0434V9.95067C21.7725 9.84755 21.7372 9.75256 21.6766 9.68019C21.616 9.60692 21.53 9.55445 21.4287 9.53545L20.4363 9.3482C20.2771 9.31835 20.1351 9.2496 20.0184 9.14919C19.9035 9.04968 19.8148 8.91942 19.7614 8.76565C19.7099 8.61548 19.652 8.46441 19.5868 8.30791C19.5217 8.15051 19.453 7.99945 19.3815 7.85017C19.3109 7.70453 19.2811 7.54984 19.2919 7.39787C19.3028 7.245 19.3553 7.09573 19.4466 6.96276L20.0165 6.12781C20.0753 6.04277 20.0989 5.94417 20.0907 5.84919C20.0826 5.75602 20.0401 5.66466 19.9659 5.59138L17.7794 3.40495C17.7061 3.33168 17.6147 3.28916 17.5215 3.28102C17.4265 3.27198 17.3279 3.2964 17.2429 3.3552L16.4079 3.92509C16.274 4.01645 16.1248 4.06892 15.9728 4.07978C15.8208 4.09063 15.6661 4.06078 15.5205 3.99022C15.3721 3.91785 15.221 3.85001 15.0682 3.78669L15.0699 3.78916Z" fill="#777777"/>
</svg>
