<svg width="20" height="20" viewBox="0 0 20 20" fill="none" xmlns="http://www.w3.org/2000/svg">
    <path d="M14.125 14.2773H5.86719V13.1797C5.86719 12.3477 6.14453 11.6719 6.69141 11.1797C7.14063 10.7734 7.77734 10.4844 8.63281 10.2969C8.79297 10.2617 8.91016 10.1094 8.91016 9.9375C8.91016 9.75 8.84766 9.57812 8.73828 9.44922C8.45703 9.125 8.30078 8.71094 8.30078 8.28125V7.60547C8.30078 6.64063 9.0625 5.85547 9.99609 5.85547C10.9336 5.85547 11.6914 6.64063 11.6914 7.60547V8.28125C11.6914 8.71484 11.5352 9.12891 11.2539 9.44922C11.1406 9.57812 11.082 9.75 11.082 9.9375C11.082 10.1094 11.1992 10.2617 11.3594 10.2969C12.2148 10.4883 12.8516 10.7773 13.3008 11.1797C13.8477 11.6719 14.125 12.3438 14.125 13.1797V14.2773ZM6.49219 13.6523H13.5V13.1797C13.5 11.957 12.7969 11.2539 11.2266 10.9063C10.7812 10.8086 10.4609 10.3984 10.4609 9.9375C10.4609 9.59766 10.5781 9.28125 10.7891 9.03906C10.9727 8.83203 11.0703 8.5625 11.0703 8.28125V7.60547C11.0703 6.98438 10.5898 6.48047 10 6.48047C9.41016 6.48047 8.92969 6.98438 8.92969 7.60547V8.28125C8.92969 8.5625 9.03125 8.83203 9.21094 9.03906C9.42188 9.28125 9.53906 9.60156 9.53906 9.9375C9.53906 10.4023 9.21875 10.8086 8.77344 10.9063C7.19922 11.2539 6.5 11.957 6.5 13.1797V13.6523H6.49219Z" fill="#286248"/>
    <path d="M4.8125 13.9609H4.1875V13.0547C4.1875 12.2227 4.46484 11.5469 5.01172 11.0547C5.46094 10.6484 6.09766 10.3594 6.95312 10.1719C7.14453 10.1289 7.41797 9.91016 7.49609 9.77344C7.44531 9.69531 7.31641 9.57813 7.25 9.51563C7.17969 9.44922 7.11328 9.38672 7.05859 9.32422C6.77734 9 6.62109 8.58594 6.62109 8.15625V7.48047C6.62109 6.51563 7.38281 5.73047 8.31641 5.73047V6.35547C7.72656 6.35547 7.24609 6.85938 7.24609 7.48047V8.15625C7.24609 8.4375 7.34766 8.70703 7.52734 8.91406C7.5625 8.95312 7.61719 9.00391 7.67578 9.05859C7.86328 9.23047 8.08984 9.44141 8.13672 9.71484H8.14453V9.8125H8.13672C8.0625 10.2773 7.48438 10.6953 7.08984 10.7812C5.51563 11.1289 4.81641 11.832 4.81641 13.0547V13.9609H4.8125Z" fill="#286248"/>
    <path d="M15.8125 13.9609H15.1875V13.0547C15.1875 11.832 14.4844 11.1289 12.9141 10.7812C12.5234 10.6953 11.9453 10.2773 11.8672 9.8125H11.8594V9.71484H11.8672C11.9141 9.44141 12.1406 9.23047 12.3281 9.05859C12.3867 9.00391 12.4414 8.95312 12.4766 8.91406C12.6602 8.70703 12.7578 8.4375 12.7578 8.15625V7.48047C12.7578 6.85938 12.2773 6.35547 11.6875 6.35547V5.73047C12.625 5.73047 13.3828 6.51563 13.3828 7.48047V8.15625C13.3828 8.58984 13.2266 9.00391 12.9453 9.32422C12.8906 9.38672 12.8242 9.44922 12.7539 9.51563C12.6875 9.57813 12.5586 9.69531 12.5078 9.77344C12.5859 9.91016 12.8594 10.1289 13.0508 10.1719C13.9062 10.3633 14.543 10.6523 14.9922 11.0547C15.5391 11.5469 15.8164 12.2188 15.8164 13.0547V13.9609H15.8125Z" fill="#286248"/>
    <circle cx="10" cy="10" r="9.5" stroke="#286248"/>
</svg>
